<?xml version="1.0" standalone="no"?>
<!DOCTYPE svg PUBLIC "-//W3C//DTD SVG 20010904//EN"
 "http://www.w3.org/TR/2001/REC-SVG-20010904/DTD/svg10.dtd">
<svg version="1.0" xmlns="http://www.w3.org/2000/svg"
 width="650.000000pt" height="650.000000pt" viewBox="0 0 650.000000 650.000000"
 preserveAspectRatio="xMidYMid meet">
<metadata>
Created by potrace 1.14, written by Peter Selinger 2001-2017
</metadata>
<g transform="translate(0.000000,650.000000) scale(0.100000,-0.100000)"
fill="#000000" stroke="none">
<path d="M3130 6099 c-25 -6 -50 -15 -57 -21 -7 -5 -17 -7 -23 -3 -5 3 -10 1
-10 -5 0 -6 -4 -8 -10 -5 -5 3 -10 1 -10 -5 0 -6 -4 -8 -10 -5 -5 3 -10 3 -10
-2 0 -4 -13 -14 -29 -21 -73 -32 -221 -211 -221 -267 0 -8 -4 -15 -8 -15 -5 0
-9 -6 -9 -12 0 -7 -4 -26 -8 -43 -4 -16 -8 -77 -9 -134 l-2 -103 -44 -25 c-25
-14 -57 -34 -72 -45 -16 -11 -28 -16 -28 -11 0 4 -4 3 -8 -2 -4 -6 -24 -19
-44 -30 -21 -11 -38 -23 -38 -28 0 -4 -4 -5 -10 -2 -5 3 -10 1 -10 -5 0 -6 -4
-8 -10 -5 -5 3 -10 1 -10 -4 0 -6 -6 -11 -14 -11 -7 0 -19 -7 -26 -15 -7 -9
-15 -13 -18 -11 -3 3 -19 -5 -36 -17 -17 -12 -33 -22 -36 -22 -3 0 -28 -14
-55 -31 -104 -65 -524 -304 -534 -304 -6 0 -11 -4 -11 -8 0 -5 -18 -17 -40
-27 -22 -10 -40 -21 -40 -25 0 -4 -9 -10 -20 -13 -11 -3 -20 -1 -20 4 0 5 -7
9 -15 9 -8 0 -15 4 -15 9 0 6 -34 27 -76 48 -79 39 -94 44 -131 46 -13 0 -23
4 -23 8 0 4 -43 6 -95 6 -52 -1 -95 -5 -95 -10 0 -4 -4 -6 -9 -3 -11 7 -79
-16 -141 -47 -43 -21 -66 -37 -95 -64 -8 -7 -18 -13 -24 -13 -6 0 -11 -4 -11
-10 0 -5 -12 -23 -28 -39 -45 -50 -53 -60 -68 -96 -8 -19 -18 -35 -24 -35 -5
0 -7 -9 -5 -20 2 -11 0 -20 -4 -20 -4 0 -8 -6 -9 -12 0 -7 -6 -33 -12 -58 -14
-53 -6 -247 10 -267 2 -2 3 -6 5 -10 1 -5 7 -21 13 -36 7 -16 12 -33 12 -38 0
-5 3 -9 8 -9 4 0 13 -14 21 -31 15 -35 132 -159 150 -159 6 0 11 -4 11 -9 0
-4 29 -21 65 -36 l65 -29 0 -646 0 -647 -77 -38 c-78 -40 -164 -115 -198 -173
-11 -18 -23 -32 -28 -32 -4 0 -6 -4 -2 -9 3 -5 -2 -17 -11 -25 -8 -9 -12 -16
-8 -16 3 0 1 -6 -5 -13 -6 -8 -8 -17 -4 -20 3 -4 1 -7 -6 -7 -7 0 -11 -6 -8
-14 3 -7 1 -18 -5 -24 -15 -15 -22 -200 -9 -252 7 -25 13 -52 16 -62 7 -32 59
-130 81 -154 13 -13 21 -24 19 -24 -2 0 17 -20 43 -44 55 -51 168 -120 182
-111 6 3 10 1 10 -5 0 -7 6 -10 14 -7 7 3 19 0 25 -6 21 -21 217 -19 289 3 35
10 69 23 76 29 7 6 16 8 19 4 4 -3 7 -1 7 5 0 7 9 12 20 12 11 0 20 3 20 8 0
13 69 54 82 48 7 -3 31 -18 53 -31 22 -14 48 -28 58 -32 9 -3 17 -9 17 -13 0
-4 8 -10 18 -13 9 -3 42 -21 74 -39 31 -18 94 -54 140 -81 45 -26 103 -59 128
-73 42 -25 74 -43 131 -76 13 -7 26 -15 29 -18 3 -3 23 -15 45 -27 77 -41 120
-65 145 -82 14 -9 39 -23 55 -31 17 -8 36 -21 43 -27 7 -7 20 -13 28 -13 8 0
14 -4 14 -9 0 -5 8 -11 18 -14 22 -7 93 -48 110 -64 6 -6 8 -14 4 -17 -5 -3
-8 -45 -7 -93 3 -109 9 -137 52 -235 14 -32 30 -58 34 -58 5 0 9 -6 9 -13 0
-20 119 -130 172 -160 55 -31 134 -59 166 -59 12 0 24 -3 26 -7 5 -8 106 -6
176 3 73 10 204 75 260 128 55 53 90 95 90 108 0 6 3 10 8 10 4 0 12 12 19 28
35 79 49 118 48 132 -1 8 2 20 6 25 4 6 6 56 5 112 l-1 101 52 28 c29 15 53
31 53 36 0 5 4 7 8 4 5 -3 20 2 33 12 40 28 311 182 320 182 5 0 9 5 9 11 0 5
5 7 10 4 6 -3 10 -1 10 4 0 6 7 11 15 11 8 0 15 4 15 8 0 4 12 13 28 19 15 7
48 24 74 40 106 64 158 93 167 93 6 0 15 8 20 17 6 10 11 15 11 11 0 -4 29 10
65 32 36 22 67 40 69 40 2 0 37 20 77 44 76 46 88 47 131 11 66 -56 191 -95
307 -95 95 1 145 10 215 39 25 11 47 19 49 18 3 -2 26 16 62 49 13 12 26 20
28 18 6 -6 117 126 117 140 0 4 8 18 17 33 10 14 19 32 20 40 7 33 9 39 16 50
14 23 22 176 13 233 -10 58 -18 87 -32 114 -8 16 -14 35 -14 43 0 7 -3 13 -8
13 -4 0 -13 15 -21 32 -25 57 -138 159 -219 198 l-72 34 2 645 3 645 69 34
c80 40 191 144 227 212 13 25 23 47 24 50 0 3 4 11 8 17 8 12 15 38 22 73 1 8
5 22 8 30 14 32 -1 235 -20 280 -3 8 -7 17 -8 20 0 3 -11 25 -24 50 -55 106
-146 191 -256 241 -85 38 -104 42 -220 42 -98 0 -140 -5 -180 -22 -77 -33
-105 -47 -105 -53 0 -5 -6 -8 -13 -8 -8 0 -24 -11 -36 -24 l-22 -23 -77 42
c-42 24 -84 49 -93 57 -9 7 -20 14 -25 15 -5 1 -36 17 -68 37 -33 20 -68 38
-78 42 -10 3 -18 10 -18 15 0 6 -4 7 -10 4 -6 -3 -10 -1 -10 4 0 6 -4 11 -10
11 -5 0 -73 38 -152 84 -79 46 -160 93 -180 105 -49 27 -84 47 -191 110 -49
28 -92 51 -97 51 -5 0 -10 3 -12 8 -1 4 -25 19 -52 34 l-50 26 -1 109 c-1 59
-5 119 -9 133 -4 14 -8 30 -10 35 -6 28 -60 135 -67 135 -5 0 -9 4 -9 10 0 11
-23 41 -60 77 -26 25 -146 108 -158 108 -4 1 -18 7 -30 14 -13 7 -26 10 -29 7
-4 -3 -12 -1 -20 6 -19 15 -206 20 -263 7z m-194 -966 c17 -13 36 -23 42 -23
7 0 12 -4 12 -8 0 -5 18 -15 41 -22 22 -8 42 -18 45 -22 3 -5 6 -71 6 -146 0
-75 2 -144 4 -152 3 -13 30 -15 166 -14 l163 0 2 154 1 154 54 24 c29 14 55
28 56 33 2 5 8 9 14 9 5 0 24 11 41 24 32 25 32 25 57 6 14 -11 30 -20 37 -20
6 0 13 -3 15 -7 2 -5 29 -21 61 -38 31 -16 57 -33 57 -37 0 -4 4 -8 10 -8 12
0 314 -173 318 -182 2 -5 8 -8 13 -8 5 0 30 -13 56 -28 90 -54 143 -83 149
-81 4 0 10 -4 13 -9 3 -5 31 -23 62 -40 31 -17 110 -62 175 -101 l119 -69 0
-114 c0 -108 -1 -113 -22 -123 -13 -5 -23 -13 -23 -18 0 -4 -4 -6 -9 -3 -5 3
-14 -1 -21 -9 -7 -8 -17 -15 -22 -15 -6 0 -30 -13 -53 -29 -24 -16 -60 -37
-80 -46 l-35 -17 27 -47 c15 -25 32 -56 38 -68 5 -13 14 -23 18 -23 5 0 5 -4
2 -10 -3 -5 -1 -10 5 -10 6 0 8 -4 5 -10 -3 -5 -3 -10 2 -10 4 0 19 -21 33
-47 39 -75 39 -75 106 -37 32 19 69 39 82 46 12 6 22 15 22 20 0 5 4 7 9 3 5
-3 17 2 25 11 9 8 16 12 16 8 0 -4 9 1 20 11 17 15 24 16 50 5 16 -7 30 -16
30 -20 0 -4 31 -22 69 -40 38 -19 71 -41 73 -49 2 -9 4 -299 3 -645 l0 -629
-60 -31 c-33 -17 -77 -43 -99 -58 -32 -22 -42 -25 -57 -15 -11 7 -19 15 -19
20 0 4 -4 6 -8 3 -5 -3 -24 6 -44 19 -43 29 -164 95 -175 95 -4 0 -21 -25 -38
-55 -16 -30 -33 -55 -37 -55 -4 0 -8 -3 -7 -7 2 -16 -14 -53 -22 -53 -5 0 -9
-5 -9 -10 0 -6 -11 -28 -25 -50 -33 -52 -32 -63 8 -83 41 -21 110 -60 117 -67
3 -3 28 -17 55 -32 l50 -27 1 -108 c1 -104 -5 -139 -23 -137 -4 1 -17 -4 -28
-11 -58 -35 -122 -72 -135 -78 -8 -4 -37 -21 -65 -38 -27 -17 -62 -35 -77 -42
-16 -6 -28 -14 -28 -18 0 -3 -18 -14 -40 -24 -22 -10 -40 -22 -40 -27 0 -4 -8
-8 -19 -8 -10 0 -24 -7 -31 -15 -7 -8 -16 -12 -21 -9 -5 3 -9 1 -9 -4 0 -6
-17 -19 -37 -30 -57 -29 -112 -60 -174 -98 -31 -19 -62 -34 -68 -34 -6 0 -11
-4 -11 -10 0 -5 -7 -10 -15 -10 -8 0 -15 -4 -15 -10 0 -5 -5 -10 -11 -10 -6 0
-38 -16 -72 -36 -34 -20 -87 -50 -117 -67 -30 -17 -58 -35 -62 -40 -6 -10
-109 48 -116 65 -2 5 -8 6 -13 2 -5 -3 -9 0 -9 5 0 6 -3 10 -7 9 -5 -1 -20 4
-35 10 -32 13 -30 3 -29 195 l1 127 -169 0 -168 0 0 -143 c0 -131 -7 -196 -20
-183 -7 7 -113 -48 -138 -72 -23 -21 -58 -20 -81 3 -9 8 -21 15 -28 15 -7 0
-22 9 -34 20 -12 12 -22 18 -22 14 0 -4 -8 0 -17 8 -10 8 -43 29 -73 45 -93
51 -152 85 -217 125 -35 21 -63 34 -63 30 0 -4 -4 -2 -8 3 -7 11 -220 137
-277 165 -16 8 -32 17 -35 20 -3 3 -32 21 -65 39 -33 19 -63 39 -67 45 -4 6
-8 7 -8 2 0 -5 -9 -1 -20 9 -11 10 -20 15 -20 12 0 -3 -24 10 -52 29 -29 19
-58 34 -64 34 -8 0 -10 10 -5 33 4 17 6 69 5 115 l-2 82 67 37 c36 20 68 40
71 43 3 3 22 15 43 26 73 36 77 39 77 47 0 13 -39 85 -50 92 -6 4 -8 11 -5 16
4 5 1 9 -5 9 -6 0 -9 4 -6 9 4 5 3 11 -2 13 -8 3 -59 88 -61 101 0 4 -9 17
-20 28 l-18 20 -39 -21 c-22 -12 -48 -26 -59 -33 -86 -52 -164 -97 -170 -97
-2 0 -10 6 -17 13 -21 22 -102 70 -115 70 -7 0 -13 4 -13 9 0 4 -9 8 -20 8
-14 0 -20 7 -21 23 -4 77 -3 1270 1 1277 3 4 23 16 45 27 84 42 102 53 120 73
10 11 23 16 29 12 6 -3 13 -7 16 -7 3 0 24 -13 48 -28 23 -15 58 -35 77 -44
19 -9 35 -21 35 -25 0 -5 4 -7 9 -3 5 3 12 1 16 -4 3 -5 19 -16 35 -24 28 -15
30 -14 42 14 7 16 15 29 18 29 4 0 17 22 31 50 13 27 28 50 32 50 5 0 5 5 2
10 -3 6 -1 10 5 10 6 0 8 5 5 10 -3 6 -2 10 3 10 8 0 52 75 52 90 0 9 -136 90
-151 90 -5 0 -9 5 -9 10 0 6 -6 10 -14 10 -8 0 -16 3 -18 8 -1 4 -20 15 -41
25 -23 10 -35 22 -31 28 10 16 12 149 4 180 -7 22 -3 29 24 45 17 10 33 19 36
19 3 0 24 13 48 28 24 15 54 32 67 37 14 5 25 14 25 20 0 5 3 9 8 8 7 -2 101
50 112 62 3 3 12 6 20 8 8 2 22 9 30 16 8 7 29 20 45 28 40 19 79 42 85 49 5
5 35 18 45 19 3 0 13 7 23 16 27 25 130 82 136 76 3 -3 6 0 6 6 0 6 9 14 21
17 11 4 60 31 109 61 48 30 93 54 99 54 6 0 11 4 11 8 0 5 16 14 35 22 19 8
35 17 35 22 0 4 6 8 13 9 6 0 28 11 47 23 37 25 38 25 86 -11z"/>
<path d="M3065 4652 c-2 -3 -17 -6 -32 -8 -16 -1 -28 -3 -28 -4 0 -1 -11 -3
-25 -5 -70 -9 -198 -49 -262 -80 -25 -13 -49 -21 -52 -18 -3 4 -6 1 -6 -5 0
-7 -3 -11 -7 -10 -9 3 -120 -58 -145 -80 -10 -8 -18 -11 -18 -6 0 5 -4 4 -8
-2 -4 -5 -25 -23 -47 -39 -22 -16 -50 -40 -62 -52 -12 -13 -26 -23 -31 -23 -5
0 -35 -29 -68 -64 -90 -96 -124 -136 -117 -136 3 0 -3 -8 -13 -18 -21 -19 -37
-43 -56 -82 -7 -14 -18 -31 -25 -38 -20 -21 -88 -169 -85 -184 1 -5 -3 -8 -8
-8 -5 0 -9 -3 -9 -7 1 -5 0 -11 -1 -15 -1 -5 -3 -11 -4 -15 -1 -5 -12 -39 -23
-78 -30 -99 -34 -120 -49 -225 -8 -53 -11 -354 -5 -365 3 -5 7 -23 8 -40 4
-64 52 -255 63 -255 5 0 6 -9 3 -20 -3 -11 0 -20 6 -20 6 0 11 -6 11 -14 0
-36 151 -316 171 -316 5 0 9 -6 9 -12 0 -7 24 -39 53 -70 29 -32 52 -58 50
-58 -5 0 95 -89 148 -133 25 -20 51 -37 58 -37 6 0 11 -4 11 -8 0 -5 15 -16
33 -25 57 -30 102 -59 109 -71 4 -6 8 -7 8 -3 0 4 10 2 23 -5 12 -7 25 -11 30
-10 4 1 7 -3 7 -9 0 -6 7 -9 15 -5 8 3 15 1 15 -5 0 -6 5 -7 10 -4 6 3 10 2
10 -3 0 -5 26 -17 58 -27 31 -10 61 -20 67 -23 5 -4 16 -7 25 -8 22 -4 55 -12
55 -15 0 -3 47 -10 82 -12 18 -1 33 -5 33 -8 0 -3 26 -6 58 -7 31 -1 80 -3
107 -5 28 -3 53 -3 57 0 4 2 45 6 90 8 46 2 94 6 108 10 14 3 34 8 45 10 20 4
72 15 90 19 11 3 15 5 120 43 74 27 225 104 257 132 10 9 22 16 26 16 6 0 52
32 106 75 10 8 40 36 67 61 27 25 51 44 54 41 3 -3 5 -1 5 5 0 5 17 28 38 50
54 59 67 77 64 85 -1 5 2 8 7 8 12 0 104 143 138 215 15 33 32 63 36 66 5 3 8
9 7 13 -2 6 7 39 15 56 11 26 17 45 35 113 11 42 23 94 26 115 3 20 8 51 10
67 8 49 11 365 3 365 -4 0 -7 17 -7 38 -2 63 -39 215 -72 290 -10 23 -16 42
-12 42 4 0 3 4 -3 8 -5 4 -25 39 -44 77 -36 74 -128 218 -142 223 -5 2 -9 8
-9 13 0 15 -113 135 -204 216 -50 45 -170 125 -247 165 -35 18 -67 37 -70 42
-4 5 -11 6 -17 2 -6 -3 -13 -2 -17 3 -6 11 -181 70 -230 78 -16 2 -39 6 -50 8
-11 2 -20 4 -20 6 0 9 -401 20 -410 11z m-15 -865 c0 -5 6 -5 13 0 15 9 891
11 916 1 15 -5 58 -71 184 -282 7 -11 27 -44 45 -73 18 -29 32 -56 31 -59 0
-4 6 -11 15 -16 9 -5 16 -13 16 -19 0 -5 10 -23 22 -40 l22 -30 -29 -52 c-16
-28 -38 -66 -49 -83 -42 -63 -80 -129 -82 -143 -2 -8 -6 -17 -11 -20 -4 -3
-17 -23 -28 -44 -11 -21 -27 -46 -36 -55 -15 -17 -19 -25 -19 -41 0 -5 -6 -16
-13 -23 -6 -7 -23 -29 -36 -49 l-24 -35 -573 -1 c-521 0 -572 1 -566 16 3 9
29 52 57 96 29 44 60 96 71 115 10 19 25 41 32 48 7 8 19 27 27 43 9 16 20 29
26 29 6 0 8 4 5 9 -3 5 18 46 48 90 l54 82 -25 44 c-13 25 -29 47 -34 51 -5 3
-7 10 -4 15 4 5 2 9 -2 9 -5 0 -19 20 -33 45 -14 25 -28 45 -32 45 -5 0 -8 6
-8 14 0 8 -6 21 -13 28 -7 7 -31 42 -52 78 -22 36 -47 74 -57 84 -10 11 -18
23 -18 27 0 5 -11 25 -25 45 -14 20 -23 40 -20 43 3 3 38 7 77 8 40 2 73 5 74
6 6 6 54 1 54 -6z m-307 -5 c4 -1 -1 -12 -13 -24 -11 -12 -20 -28 -20 -35 0
-7 -4 -13 -8 -13 -5 0 -14 -11 -20 -25 -7 -14 -17 -31 -22 -38 -15 -17 -160
-247 -160 -253 0 -3 -11 -20 -25 -38 -14 -18 -25 -36 -25 -40 0 -5 -9 -21 -20
-37 -23 -31 -19 -46 28 -97 12 -14 22 -29 22 -34 0 -5 6 -16 13 -23 28 -33 37
-45 32 -45 -3 0 19 -35 50 -79 30 -43 55 -84 55 -90 0 -6 5 -11 10 -11 6 0 10
-4 10 -9 0 -9 57 -100 70 -111 3 -3 10 -17 17 -31 l11 -25 -116 -1 c-122 0
-126 2 -151 50 -8 15 -18 27 -23 27 -5 0 -7 4 -3 9 3 5 0 15 -7 23 -18 18 -78
117 -78 128 0 4 -7 10 -15 14 -8 3 -15 10 -15 16 0 6 -9 23 -19 38 -31 44 -68
106 -69 116 0 5 -4 12 -10 15 -5 3 -21 26 -35 51 l-26 46 34 54 c19 30 43 71
52 90 10 19 24 39 31 43 6 4 12 13 12 18 0 6 14 30 30 54 17 24 30 46 30 50 0
7 51 86 68 103 7 8 10 18 7 23 -4 5 -2 9 3 9 5 0 19 19 32 43 l22 42 117 -1
c64 -1 120 -2 124 -2z m102 -337 c26 -41 51 -75 57 -75 5 0 7 -4 4 -8 -3 -5 8
-28 25 -50 17 -23 27 -42 22 -43 -28 -2 41 -18 81 -18 27 -1 47 -4 43 -7 -3
-4 -31 -6 -62 -6 -30 0 -55 -4 -55 -9 0 -5 -7 -9 -16 -9 -8 0 -12 -4 -9 -10 3
-5 1 -10 -4 -10 -6 0 -11 -6 -11 -14 0 -8 -4 -16 -9 -18 -4 -1 -34 -43 -66
-93 l-57 -89 -19 23 c-11 13 -19 29 -19 36 0 6 -9 20 -20 30 -11 10 -20 22
-20 26 0 5 -21 38 -47 74 -46 64 -47 64 -90 62 -55 -3 -56 9 0 18 41 6 44 10
117 123 81 126 91 141 102 142 4 0 28 -34 53 -75z"/>
<path d="M3444 3607 c-66 -52 -62 -147 9 -193 35 -22 108 -26 115 -6 2 7 8 12
14 12 25 0 48 44 48 93 0 42 -5 54 -34 83 -29 29 -40 33 -80 32 -30 0 -55 -8
-72 -21z"/>
<path d="M3894 3375 c-42 -18 -65 -48 -71 -93 -10 -73 56 -131 135 -117 53 9
79 57 73 133 -1 19 -73 87 -92 88 -9 1 -29 -4 -45 -11z"/>
<path d="M3460 3222 c-16 -6 -71 -58 -70 -67 0 -3 0 -6 -1 -7 -13 -42 9 -98
50 -127 15 -11 44 -19 70 -19 37 -1 50 5 78 33 28 28 33 40 33 80 0 40 -5 51
-35 79 -34 32 -81 43 -125 28z"/>
</g>
</svg>
